<svg 
  xmlns="http://www.w3.org/2000/svg" 
  viewBox="0 0 240 60" 
  width="240" 
  height="60"
  role="img"
  aria-label="Precheck.me Logo"
>
  <title>Precheck.me</title>
  <desc>Precheck.me platform logo</desc>
  
  <!-- Checkmark symbol with Material Design principles -->
  <path
    d="M30 10C18.95 10 10 18.95 10 30C10 41.05 18.95 50 30 50C41.05 50 50 41.05 50 30C50 18.95 41.05 10 30 10ZM25 40L15 30L17.82 27.18L25 34.34L42.18 17.16L45 20L25 40Z"
    fill="currentColor"
  />

  <!-- Text "Precheck" with Material Design typography -->
  <path
    d="M70 40V20H77C79.2 20 81 20.6 82.4 21.8C83.8 23 84.5 24.6 84.5 26.6C84.5 28.6 83.8 30.2 82.4 31.4C81 32.6 79.2 33.2 77 33.2H73.8V40H70ZM73.8 30.2H77C78.2 30.2 79.1 29.9 79.7 29.3C80.3 28.7 80.6 27.8 80.6 26.6C80.6 25.4 80.3 24.5 79.7 23.9C79.1 23.3 78.2 23 77 23H73.8V30.2Z"
    fill="currentColor"
  />
  <path
    d="M95.4 40.3C93.6 40.3 92.1 39.8 90.9 38.8C89.7 37.8 89.1 36.4 89.1 34.6H92.9C92.9 35.4 93.2 36.1 93.8 36.6C94.4 37.1 95.1 37.3 96 37.3C96.9 37.3 97.6 37.1 98.1 36.7C98.6 36.3 98.9 35.8 98.9 35.2C98.9 34.6 98.6 34.1 98 33.7C97.4 33.3 96.4 32.9 95 32.5C93.6 32.1 92.5 31.7 91.7 31.3C90.9 30.9 90.2 30.3 89.6 29.5C89 28.7 88.7 27.7 88.7 26.5C88.7 24.9 89.3 23.6 90.5 22.6C91.7 21.6 93.2 21.1 95 21.1C96.8 21.1 98.3 21.6 99.5 22.6C100.7 23.6 101.3 25 101.3 26.8H97.5C97.5 26 97.2 25.3 96.7 24.8C96.2 24.3 95.5 24.1 94.7 24.1C93.9 24.1 93.3 24.3 92.8 24.7C92.3 25.1 92.1 25.6 92.1 26.2C92.1 26.8 92.4 27.3 93 27.7C93.6 28.1 94.6 28.5 96 28.9C97.4 29.3 98.5 29.7 99.3 30.1C100.1 30.5 100.8 31.1 101.4 31.9C102 32.7 102.3 33.7 102.3 34.9C102.3 35.9 102 36.8 101.4 37.6C100.8 38.4 100 39 99 39.4C98 39.8 96.8 40.3 95.4 40.3Z"
    fill="currentColor"
  />
  <path
    d="M113.3 40.3C111.7 40.3 110.3 39.9 109.1 39.1C107.9 38.3 107 37.2 106.4 35.8C105.8 34.4 105.5 32.8 105.5 31C105.5 29.2 105.8 27.6 106.4 26.2C107 24.8 107.9 23.7 109.1 22.9C110.3 22.1 111.7 21.7 113.3 21.7C114.9 21.7 116.3 22.1 117.5 22.9C118.7 23.7 119.6 24.8 120.2 26.2C120.8 27.6 121.1 29.2 121.1 31C121.1 32.8 120.8 34.4 120.2 35.8C119.6 37.2 118.7 38.3 117.5 39.1C116.3 39.9 114.9 40.3 113.3 40.3ZM113.3 37.3C114.5 37.3 115.5 36.8 116.3 35.8C117.1 34.8 117.5 33.2 117.5 31C117.5 28.8 117.1 27.2 116.3 26.2C115.5 25.2 114.5 24.7 113.3 24.7C112.1 24.7 111.1 25.2 110.3 26.2C109.5 27.2 109.1 28.8 109.1 31C109.1 33.2 109.5 34.8 110.3 35.8C111.1 36.8 112.1 37.3 113.3 37.3Z"
    fill="currentColor"
  />
  <path
    d="M132.5 40.3C130.9 40.3 129.5 39.9 128.3 39.1C127.1 38.3 126.2 37.2 125.6 35.8C125 34.4 124.7 32.8 124.7 31C124.7 29.2 125 27.6 125.6 26.2C126.2 24.8 127.1 23.7 128.3 22.9C129.5 22.1 130.9 21.7 132.5 21.7C134.1 21.7 135.5 22.1 136.7 22.9C137.9 23.7 138.8 24.8 139.4 26.2C140 27.6 140.3 29.2 140.3 31C140.3 32.8 140 34.4 139.4 35.8C138.8 37.2 137.9 38.3 136.7 39.1C135.5 39.9 134.1 40.3 132.5 40.3ZM132.5 37.3C133.7 37.3 134.7 36.8 135.5 35.8C136.3 34.8 136.7 33.2 136.7 31C136.7 28.8 136.3 27.2 135.5 26.2C134.7 25.2 133.7 24.7 132.5 24.7C131.3 24.7 130.3 25.2 129.5 26.2C128.7 27.2 128.3 28.8 128.3 31C128.3 33.2 128.7 34.8 129.5 35.8C130.3 36.8 131.3 37.3 132.5 37.3Z"
    fill="currentColor"
  />
  <path
    d="M151.7 40.3C150.1 40.3 148.7 39.9 147.5 39.1C146.3 38.3 145.4 37.2 144.8 35.8C144.2 34.4 143.9 32.8 143.9 31C143.9 29.2 144.2 27.6 144.8 26.2C145.4 24.8 146.3 23.7 147.5 22.9C148.7 22.1 150.1 21.7 151.7 21.7C153.3 21.7 154.7 22.1 155.9 22.9C157.1 23.7 158 24.8 158.6 26.2C159.2 27.6 159.5 29.2 159.5 31C159.5 32.8 159.2 34.4 158.6 35.8C158 37.2 157.1 38.3 155.9 39.1C154.7 39.9 153.3 40.3 151.7 40.3ZM151.7 37.3C152.9 37.3 153.9 36.8 154.7 35.8C155.5 34.8 155.9 33.2 155.9 31C155.9 28.8 155.5 27.2 154.7 26.2C153.9 25.2 152.9 24.7 151.7 24.7C150.5 24.7 149.5 25.2 148.7 26.2C147.9 27.2 147.5 28.8 147.5 31C147.5 33.2 147.9 34.8 148.7 35.8C149.5 36.8 150.5 37.3 151.7 37.3Z"
    fill="currentColor"
  />
  <path
    d="M170.9 40.3C169.3 40.3 167.9 39.9 166.7 39.1C165.5 38.3 164.6 37.2 164 35.8C163.4 34.4 163.1 32.8 163.1 31C163.1 29.2 163.4 27.6 164 26.2C164.6 24.8 165.5 23.7 166.7 22.9C167.9 22.1 169.3 21.7 170.9 21.7C172.5 21.7 173.9 22.1 175.1 22.9C176.3 23.7 177.2 24.8 177.8 26.2C178.4 27.6 178.7 29.2 178.7 31C178.7 32.8 178.4 34.4 177.8 35.8C177.2 37.2 176.3 38.3 175.1 39.1C173.9 39.9 172.5 40.3 170.9 40.3ZM170.9 37.3C172.1 37.3 173.1 36.8 173.9 35.8C174.7 34.8 175.1 33.2 175.1 31C175.1 28.8 174.7 27.2 173.9 26.2C173.1 25.2 172.1 24.7 170.9 24.7C169.7 24.7 168.7 25.2 167.9 26.2C167.1 27.2 166.7 28.8 166.7 31C166.7 33.2 167.1 34.8 167.9 35.8C168.7 36.8 169.7 37.3 170.9 37.3Z"
    fill="currentColor"
  />

  <!-- Text ".me" with Material Design typography -->
  <path
    d="M190 40.3C188.4 40.3 187 39.9 185.8 39.1C184.6 38.3 183.7 37.2 183.1 35.8C182.5 34.4 182.2 32.8 182.2 31C182.2 29.2 182.5 27.6 183.1 26.2C183.7 24.8 184.6 23.7 185.8 22.9C187 22.1 188.4 21.7 190 21.7C191.6 21.7 193 22.1 194.2 22.9C195.4 23.7 196.3 24.8 196.9 26.2C197.5 27.6 197.8 29.2 197.8 31C197.8 32.8 197.5 34.4 196.9 35.8C196.3 37.2 195.4 38.3 194.2 39.1C193 39.9 191.6 40.3 190 40.3ZM190 37.3C191.2 37.3 192.2 36.8 193 35.8C193.8 34.8 194.2 33.2 194.2 31C194.2 28.8 193.8 27.2 193 26.2C192.2 25.2 191.2 24.7 190 24.7C188.8 24.7 187.8 25.2 187 26.2C186.2 27.2 185.8 28.8 185.8 31C185.8 33.2 186.2 34.8 187 35.8C187.8 36.8 188.8 37.3 190 37.3Z"
    fill="currentColor"
  />
  <path
    d="M209.2 40.3C207.6 40.3 206.2 39.9 205 39.1C203.8 38.3 202.9 37.2 202.3 35.8C201.7 34.4 201.4 32.8 201.4 31C201.4 29.2 201.7 27.6 202.3 26.2C202.9 24.8 203.8 23.7 205 22.9C206.2 22.1 207.6 21.7 209.2 21.7C210.8 21.7 212.2 22.1 213.4 22.9C214.6 23.7 215.5 24.8 216.1 26.2C216.7 27.6 217 29.2 217 31C217 32.8 216.7 34.4 216.1 35.8C215.5 37.2 214.6 38.3 213.4 39.1C212.2 39.9 210.8 40.3 209.2 40.3ZM209.2 37.3C210.4 37.3 211.4 36.8 212.2 35.8C213 34.8 213.4 33.2 213.4 31C213.4 28.8 213 27.2 212.2 26.2C211.4 25.2 210.4 24.7 209.2 24.7C208 24.7 207 25.2 206.2 26.2C205.4 27.2 205 28.8 205 31C205 33.2 205.4 34.8 206.2 35.8C207 36.8 208 37.3 209.2 37.3Z"
    fill="currentColor"
  />
</svg>